PathFileType	4	(X/Y/Z)	./resultDataOpenSim/trcMotMarkerGrf/sub10/qtm-14-02.trc
DataRate	CameraRate	NumFrames	NumMarkers	Units	OrigDataRate	OrigDataStartFrame	OrigNumFrames
250.000000	250.000000	9	24	m	250.000000	307	490
Frame#	Time	L.Toe.Tip			R.Toe.Tip			L.Ankle.Lat			R.Ankle.Lat			L.Ankle.Med			R.Ankle.Med			L.Heel			R.Heel			L.Knee.Lat			R.Knee.Lat			L.Knee.Med			R.Knee.Med			L.Thigh.Upper			R.Thigh.Upper			L.ASIS			R.ASIS			V.Sacral			L.Acromium			R.Acromium			C7			L.Elbow			R.Elbow			L.Wrist.Lat			R.Wrist.Lat
		X1	Y1	Z1	X2	Y2	Z2	X3	Y3	Z3	X4	Y4	Z4	X5	Y5	Z5	X6	Y6	Z6	X7	Y7	Z7	X8	Y8	Z8	X9	Y9	Z9	X10	Y10	Z10	X11	Y11	Z11	X12	Y12	Z12	X13	Y13	Z13	X14	Y14	Z14	X15	Y15	Z15	X16	Y16	Z16	X17	Y17	Z17	X18	Y18	Z18	X19	Y19	Z19	X20	Y20	Z20	X21	Y21	Z21	X22	Y22	Z22	X23	Y23	Z23	X24	Y24	Z24

307	1.224	0.11830761	-0.00028752591	-0.088482174	0.92886668	0.038695216	0.0062487659	0.11937616	0.13843422	-0.1379982	0.78819236	0.055881943	0.052250643	0.15799366	0.13945935	-0.062156285	0.80293413	0.077087109	-0.034869907	0.08364193	0.18833918	-0.086905825	0.7344898	0.030664703	0.011968399	0.41403206	0.37843844	-0.18907314	0.84372653	0.44227963	0.058675102	0.44259513	0.33447181	-0.078392826	0.84003064	0.45498233	-0.068901784	0.52268951	0.73945453	-0.21734761	0.67252019	0.80879592	0.14517182	0.61871714	0.84138876	-0.17424336	0.70389413	0.88621415	0.048084792	0.47331191	0.88997983	-0.0023490037	0.64826225	1.3492425	-0.18055327	0.58094134	1.3676292	0.10480674	0.54112211	1.3727164	-0.051385577	0.75859644	1.0815441	-0.36887835	0.35450488	1.1403288	0.21465078	0.99942482	1.1394645	-0.30884478	0.25027083	1.1577298	0.44313635
308	1.228	0.12429628	0.0045045704	-0.090119362	0.92889989	0.038671691	0.0063681576	0.12750786	0.14315953	-0.13897619	0.78824854	0.055835501	0.052314538	0.16630282	0.14337578	-0.063201954	0.80317674	0.077081205	-0.034795353	0.09275994	0.19356499	-0.087711778	0.73448206	0.030734793	0.011940258	0.42591445	0.37762471	-0.19034862	0.84630039	0.44167998	0.059023743	0.45426182	0.33396809	-0.079593087	0.84317583	0.45416566	-0.068565005	0.53032288	0.73970444	-0.21738159	0.67802549	0.80960074	0.14545534	0.62533401	0.8423242	-0.17404453	0.7095219	0.88685199	0.048690135	0.47907575	0.89075117	-0.00257505	0.65492717	1.3497088	-0.1804823	0.58761681	1.3680662	0.10541875	0.54747545	1.3737914	-0.051151577	0.76269089	1.0798641	-0.36775917	0.36383835	1.1375262	0.21501936	1.0040397	1.1355758	-0.30819518	0.25912882	1.1508101	0.44322589
309	1.232	0.13097773	0.0095252479	-0.091750237	0.92892404	0.038655601	0.0064832814	0.13587592	0.1479502	-0.14003002	0.78828145	0.055785474	0.052387197	0.17477748	0.1474271	-0.064284742	0.80339721	0.077085868	-0.034702668	0.10194975	0.19877931	-0.088624249	0.7344688	0.030802351	0.011918732	0.43790714	0.37690242	-0.19163857	0.84889738	0.44115509	0.059434856	0.46583164	0.33357441	-0.080509277	0.84613381	0.45347558	-0.068160336	0.53783367	0.7400949	-0.21737541	0.68347486	0.81045109	0.14566482	0.63180541	0.84353412	-0.17395937	0.71507185	0.88749966	0.049255827	0.48477923	0.89164389	-0.0028035734	0.66150225	1.3502668	-0.18039967	0.59425173	1.3685294	0.10600567	0.55376901	1.3749272	-0.050951677	0.76661217	1.0782354	-0.3666262	0.37323029	1.1348475	0.21535076	1.0085432	1.1315796	-0.30762025	0.26803523	1.1438003	0.44324402
310	1.236	0.13829961	0.014648845	-0.093365721	0.92894265	0.03864361	0.0065912795	0.14447694	0.15277577	-0.14116895	0.7882935	0.055740233	0.05246989	0.18342025	0.15159749	-0.065401097	0.80359074	0.077110874	-0.034590186	0.11121528	0.2039729	-0.089656314	0.73445681	0.030873856	0.011905123	0.44999078	0.37629986	-0.19293625	0.8514914	0.44069763	0.059910621	0.47741818	0.3333349	-0.081238663	0.84891024	0.45291901	-0.067690476	0.5452408	0.74063073	-0.21735871	0.68884446	0.8113419	0.14580955	0.63814515	0.84499845	-0.17398223	0.7205458	0.88817283	0.049790632	0.49043161	0.89264046	-0.0030609777	0.66800081	1.3509165	-0.18032495	0.60083321	1.369017	0.10656836	0.55998656	1.3761107	-0.050792808	0.77035693	1.0766735	-0.36548818	0.38265637	1.1322799	0.2156533	1.0129363	1.1274733	-0.30711513	0.27696805	1.1367113	0.44316799
311	1.24	0.14618775	0.019777136	-0.094900053	0.92895969	0.038630127	0.0066980681	0.15331822	0.15760123	-0.14239013	0.78829767	0.055704699	0.052562003	0.19224229	0.15586421	-0.066542018	0.80376481	0.077157968	-0.034461889	0.12056072	0.20913073	-0.090823147	0.73445024	0.030953268	0.011895663	0.46212276	0.3758463	-0.19417006	0.85407499	0.44030727	0.060460217	0.4891198	0.33331933	-0.081917123	0.85151701	0.45248074	-0.067170812	0.55256384	0.74132223	-0.21734563	0.6941167	0.81226263	0.14589988	0.64436262	0.84669059	-0.17410825	0.72594189	0.88888154	0.050299225	0.4960325	0.8937242	-0.0033431526	0.6744232	1.3516528	-0.18027559	0.60735336	1.3695311	0.10710855	0.56612149	1.3773291	-0.050678006	0.7739263	1.0751889	-0.36435314	0.3921006	1.1298119	0.21592518	1.0171959	1.1232588	-0.30668186	0.28601381	1.1295447	0.44303642
312	1.244	0.15456958	0.024860497	-0.096322325	0.92897514	0.038612179	0.0068139947	0.16241927	0.16239434	-0.14367505	0.78830719	0.05567612	0.052660057	0.20125341	0.16020491	-0.067698229	0.80393031	0.077221967	-0.034322604	0.12998959	0.21423579	-0.09213148	0.73444901	0.031040038	0.011886418	0.47427066	0.37556699	-0.19529171	0.85666985	0.43998364	0.061077129	0.50095871	0.33356078	-0.0826304	0.85399393	0.45213221	-0.066626881	0.55981239	0.74218196	-0.21733903	0.69928564	0.81320502	0.14595587	0.65045586	0.84857823	-0.17433577	0.73125672	0.88963276	0.050776838	0.50158579	0.8948831	-0.0036387424	0.6807668	1.3524664	-0.18026434	0.6138068	1.3700773	0.10762859	0.5721726	1.3785766	-0.050608258	0.77732531	1.0737861	-0.36322736	0.40155046	1.1274404	0.21616003	1.0213014	1.1189465	-0.30632806	0.29525477	1.1223211	0.44289005
313	1.248	0.16337871	0.029891013	-0.097667839	0.9289852	0.038590809	0.0069447175	0.17179521	0.16713484	-0.14500591	0.7883263	0.055647037	0.052757539	0.2104576	0.16459955	-0.068868067	0.80409394	0.07729619	-0.034174864	0.13950843	0.21927252	-0.093574954	0.73445038	0.0311319	0.011877516	0.48644005	0.3754779	-0.19633281	0.85932686	0.43972504	0.061734433	0.51289715	0.33402713	-0.083383131	0.85639993	0.45185066	-0.066074632	0.56698527	0.74321367	-0.21734207	0.70434345	0.81416481	0.146001	0.6564242	0.85062323	-0.17465998	0.73648953	0.89043664	0.051220051	0.50710601	0.89610751	-0.0039334767	0.68703037	1.3533467	-0.18030093	0.62018945	1.3706612	0.10813326	0.57814024	1.3798586	-0.050584241	0.78055993	1.0724632	-0.36211035	0.41099382	1.1251668	0.21634932	1.0252559	1.1145461	-0.30605749	0.30470653	1.1150752	0.44273143
314	1.252	0.17255479	0.034875512	-0.098986653	0.92898766	0.038568811	0.0070888577	0.1814418	0.17181437	-0.14637477	0.78834864	0.055612844	0.05284875	0.21985592	0.16903064	-0.070051768	0.80425643	0.077376043	-0.034019818	0.1491303	0.22422847	-0.09513776	0.73445067	0.031228881	0.011870551	0.49866854	0.37558063	-0.19738753	0.86205327	0.43952849	0.062395697	0.52488891	0.33465838	-0.084145726	0.85878476	0.451621	-0.06551822	0.57407741	0.74440686	-0.21736077	0.70927473	0.81513776	0.14605214	0.66227956	0.85278224	-0.17506784	0.74164093	0.89130524	0.051637099	0.51261008	0.8973943	-0.0042153129	0.69320996	1.3542879	-0.1803927	0.6265014	1.371287	0.1086276	0.58402924	1.3811793	-0.050607472	0.78364055	1.0712222	-0.36100703	0.4204178	1.1229877	0.21648378	1.0290757	1.110063	-0.30586584	0.31434396	1.1078355	0.44253601
315	1.256	0.18204733	0.039811046	-0.10030285	0.92898421	0.038549005	0.0072396266	0.19134051	0.17642626	-0.14777752	0.78836293	0.055576575	0.052933847	0.22944548	0.17347823	-0.071243122	0.8044152	0.077459679	-0.0338595	0.1588763	0.22909335	-0.096798859	0.73444739	0.031333234	0.011862947	0.51097615	0.3758637	-0.1985288	0.86472439	0.43938446	0.063015149	0.53690459	0.33540901	-0.084899998	0.86117049	0.4514287	-0.064963774	0.58108158	0.74574427	-0.21740482	0.71406512	0.81611678	0.14611909	0.6680447	0.85500872	-0.1755385	0.74670772	0.89224655	0.052041268	0.51809922	0.89874759	-0.0044921556	0.69930378	1.3552885	-0.18053494	0.63275133	1.3719574	0.10911606	0.58984877	1.3825305	-0.050672986	0.78658011	1.0700763	-0.35994923	0.42981147	1.1208923	0.21655543	1.0327502	1.1055075	-0.30575865	0.32414797	1.1006177	0.44228073
